<svg id="Group_3" data-name="Group 3" xmlns="http://www.w3.org/2000/svg" xmlns:xlink="http://www.w3.org/1999/xlink" width="97.042" height="54.903" viewBox="0 0 97.042 54.903">
  <defs>
    <clipPath id="clip-path">
      <rect id="Rectangle_5" data-name="Rectangle 5" width="97.042" height="54.903" fill="#fff"/>
    </clipPath>
  </defs>
  <path id="Path_1" data-name="Path 1" d="M0,0V54.9H33.112V47.874H30.2V52H2.9V2.9H30.2V16.306h2.911V0Z" transform="translate(0 0)" fill="#d39a27"/>
  <path id="Path_2" data-name="Path 2" d="M227.154,111.691h.045l1.706-4.3h2.09l-2.884,6.36v3.523H226.2v-3.648l-2.831-6.235h2.09Z" transform="translate(-153.33 -73.719)" fill="#fff"/>
  <g id="Group_2" data-name="Group 2">
    <g id="Group_1" data-name="Group 1" clip-path="url(#clip-path)">
      <path id="Path_3" data-name="Path 3" d="M204.041,111.816h1.036a1.191,1.191,0,0,0,.938-.366,1.561,1.561,0,0,0,.321-1.053,1.707,1.707,0,0,0-.312-1.1,1.112,1.112,0,0,0-.938-.41h-1.045Zm0,1.49v3.969h-1.92v-9.883h2.965a3.343,3.343,0,0,1,2.322.767,2.767,2.767,0,0,1,.848,2.141,2.386,2.386,0,0,1-.357,1.329,2.475,2.475,0,0,1-1.027.9,1.907,1.907,0,0,1,1.116.856,2.99,2.99,0,0,1,.339,1.49v.722a4.2,4.2,0,0,0,.089.865,1.19,1.19,0,0,0,.339.669v.143h-1.982a1.125,1.125,0,0,1-.3-.7,7.342,7.342,0,0,1-.063-.99v-.687a1.935,1.935,0,0,0-.313-1.169,1.06,1.06,0,0,0-.9-.419Z" transform="translate(-138.745 -73.719)" fill="#fff"/>
      <path id="Path_4" data-name="Path 4" d="M180.161,110.629a2.561,2.561,0,0,0-.437-1.632,1.533,1.533,0,0,0-1.268-.553A1.5,1.5,0,0,0,177.2,109a2.68,2.68,0,0,0-.42,1.632V113.4a2.658,2.658,0,0,0,.429,1.65,1.492,1.492,0,0,0,1.259.553,1.521,1.521,0,0,0,1.268-.553,2.658,2.658,0,0,0,.429-1.65Zm1.911,2.774a3.667,3.667,0,0,1-.982,2.729,4.018,4.018,0,0,1-5.242,0,3.7,3.7,0,0,1-.982-2.729v-2.756a3.751,3.751,0,0,1,.973-2.73,3.991,3.991,0,0,1,5.242,0,3.688,3.688,0,0,1,.991,2.73Z" transform="translate(-120.036 -73.406)" fill="#fff"/>
      <path id="Path_5" data-name="Path 5" d="M158.82,108.89H156.5v8.385h-1.929V108.89H152.31v-1.5h6.51Z" transform="translate(-104.552 -73.719)" fill="#fff"/>
      <path id="Path_6" data-name="Path 6" d="M106.329,113.627h1.688L107.2,110.5h-.045Zm2.081,1.508h-2.474l-.563,2.141h-1.991l2.8-9.884h1.982l2.813,9.884h-2.009Z" transform="translate(-70.966 -73.719)" fill="#fff"/>
      <path id="Path_7" data-name="Path 7" d="M90.189,113.145H87.046v4.13h-1.92v-9.883h5.662v1.5H87.046v2.756h3.143Z" transform="translate(-58.435 -73.719)" fill="#fff"/>
      <path id="Path_8" data-name="Path 8" d="M296.771,71.313h-3.018v2.872h3.617v1.5h-5.536V65.8h5.528v1.5h-3.608v2.524h3.018Z" transform="translate(-200.328 -45.169)" fill="#fff"/>
      <path id="Path_9" data-name="Path 9" d="M272.491,74.07a3.6,3.6,0,0,1-1.223,1.017,4.371,4.371,0,0,1-2.063.428,3.535,3.535,0,0,1-2.572-.937,3.467,3.467,0,0,1-.973-2.65v-3a3.549,3.549,0,0,1,.947-2.649,3.369,3.369,0,0,1,2.492-.937,3.486,3.486,0,0,1,2.438.758,2.765,2.765,0,0,1,.794,2.176l-.018.045h-1.795a1.54,1.54,0,0,0-.348-1.124,1.322,1.322,0,0,0-1.018-.357,1.394,1.394,0,0,0-1.161.517,2.424,2.424,0,0,0-.411,1.552v3.015a2.507,2.507,0,0,0,.42,1.579,1.472,1.472,0,0,0,1.205.517,2.336,2.336,0,0,0,.875-.134,1.149,1.149,0,0,0,.491-.357V71.545h-1.509V70.216h3.429Z" transform="translate(-182.361 -44.857)" fill="#fff"/>
      <path id="Path_10" data-name="Path 10" d="M242.774,67.3v6.886h1.134a1.363,1.363,0,0,0,1.2-.732,3.529,3.529,0,0,0,.456-1.891v-1.65a3.516,3.516,0,0,0-.456-1.882,1.363,1.363,0,0,0-1.2-.732Zm-1.92,8.385V65.8h3.054a3.268,3.268,0,0,1,2.563,1.15,4.351,4.351,0,0,1,1.009,2.979v1.632a4.312,4.312,0,0,1-1.009,2.97,3.268,3.268,0,0,1-2.563,1.151Z" transform="translate(-165.333 -45.169)" fill="#fff"/>
      <path id="Path_11" data-name="Path 11" d="M224.242,71.313h-3.027v2.872h3.626v1.5h-5.546V65.8h5.528v1.5h-3.608v2.524h3.027Z" transform="translate(-150.534 -45.169)" fill="#fff"/>
      <path id="Path_12" data-name="Path 12" d="M199.675,74.185h3.7v1.5h-5.608V65.8h1.911Z" transform="translate(-135.754 -45.169)" fill="#fff"/>
      <path id="Path_13" data-name="Path 13" d="M141.856,69.038a2.56,2.56,0,0,0-.446-1.632,1.514,1.514,0,0,0-1.259-.553,1.481,1.481,0,0,0-1.259.553,2.6,2.6,0,0,0-.429,1.632v2.774a2.66,2.66,0,0,0,.429,1.65,1.72,1.72,0,0,0,2.527,0,2.658,2.658,0,0,0,.437-1.65Zm1.911,2.774a3.638,3.638,0,0,1-.991,2.721,3.992,3.992,0,0,1-5.242,0,3.664,3.664,0,0,1-.973-2.721V69.056a3.714,3.714,0,0,1,.973-2.73,3.533,3.533,0,0,1,2.617-.981,3.582,3.582,0,0,1,2.625.981,3.688,3.688,0,0,1,.991,2.73Z" transform="translate(-93.742 -44.856)" fill="#fff"/>
      <path id="Path_14" data-name="Path 14" d="M116.923,71.349H115l-3.143-6.307h-.036v6.307H109.9V61.465h1.92l3.134,6.315.045-.009V59.485h1.92Z" transform="translate(-75.443 -40.833)" fill="#fff"/>
      <path id="Path_15" data-name="Path 15" d="M87.573,71.536h-.527v4.148h-1.92V65.8h1.92v4.041h.393L89.547,65.8h2.375l-2.858,4.514,3.072,5.37H89.69Z" transform="translate(-58.435 -45.169)" fill="#fff"/>
      <path id="Path_16" data-name="Path 16" d="M32.638,62.556,42.5,61.192V81.716h3.777v3.836H32.656V81.716h3.777V66.383h-3.8Z" transform="translate(-22.404 -42.005)" fill="#fff" fill-rule="evenodd"/>
      <path id="Path_17" data-name="Path 17" d="M45.233,27.879a4.108,4.108,0,1,1-4.108,4.1,4.108,4.108,0,0,1,4.108-4.1" transform="translate(-28.23 -19.137)" fill="#fff" fill-rule="evenodd"/>
      <path id="Path_18" data-name="Path 18" d="M212.233,153.272h.321l.831,1.847.8-1.847h.33l-1.438,3.283h-.33l.464-1.061Zm-.17-.927v.3a.876.876,0,0,0-.295-.071.257.257,0,0,0-.152.036.153.153,0,0,0-.071.08,1.332,1.332,0,0,0-.018.259v.321h.5v.268h-.5v2.132h-.313V153.54H210.9v-.268h.312V152.9a1.134,1.134,0,0,1,.045-.366.441.441,0,0,1,.161-.178.557.557,0,0,1,.277-.071,1.248,1.248,0,0,1,.366.063m-1.947.927h.313v2.4h-.313Zm.152-.99a.258.258,0,0,1,.188.08.25.25,0,0,1,.071.178.265.265,0,0,1-.071.178.288.288,0,0,1-.187.072.242.242,0,0,1-.179-.072.265.265,0,0,1-.071-.178.25.25,0,0,1,.071-.178.254.254,0,0,1,.179-.08m-1.054.063h.3v3.327h-.3Zm-1.8,1.16a.892.892,0,0,0-.67.285.941.941,0,0,0-.277.7,1,1,0,0,0,.116.491.955.955,0,0,0,.357.348.925.925,0,0,0,.482.125.953.953,0,0,0,.464-.125.937.937,0,0,0,.357-.366.992.992,0,0,0,0-.964.96.96,0,0,0-.348-.357.893.893,0,0,0-.482-.134m-1.232-.232h.3v.437a1.372,1.372,0,0,1,.42-.375,1.184,1.184,0,0,1,.536-.125,1.2,1.2,0,0,1,.875.366,1.24,1.24,0,0,1,.366.892,1.289,1.289,0,0,1-.357.9,1.2,1.2,0,0,1-.875.366,1.3,1.3,0,0,1-.527-.116,1.48,1.48,0,0,1-.438-.357v1.293h-.3Zm-4.251,0h.3v.41a1.28,1.28,0,0,1,.33-.33.927.927,0,0,1,.5-.143.841.841,0,0,1,.33.071.747.747,0,0,1,.25.178,1.039,1.039,0,0,1,.178.33,1.091,1.091,0,0,1,.384-.437.9.9,0,0,1,.5-.143.81.81,0,0,1,.437.125.784.784,0,0,1,.286.348,1.9,1.9,0,0,1,.089.678v1.311h-.312v-1.311a1.686,1.686,0,0,0-.054-.526.483.483,0,0,0-.188-.232.545.545,0,0,0-.322-.089.685.685,0,0,0-.411.134.713.713,0,0,0-.277.348,2.371,2.371,0,0,0-.08.741v.937h-.313v-1.231a2.152,2.152,0,0,0-.054-.589.517.517,0,0,0-.188-.25.544.544,0,0,0-.321-.089.67.67,0,0,0-.4.125.819.819,0,0,0-.277.348,2.036,2.036,0,0,0-.089.669v1.017h-.3Zm-1.438.232a.884.884,0,0,0-.473.134c-1.036.589-.643,2.079.393,1.65a.949.949,0,0,0,.536-.928v-.848c-.205-.009-.179-.009-.456-.009m.741-.294v2.462h-.3v-.455a1.106,1.106,0,0,1-.938.455c-.777-.045-1.205-1.276-.393-2.1a1.2,1.2,0,0,1,.875-.366h.759Z" transform="translate(-136.712 -104.533)" fill="#fff"/>
      <rect id="Rectangle_3" data-name="Rectangle 3" width="0.313" height="4.21" transform="translate(60.474 47.811)" fill="#fff"/>
      <path id="Path_19" data-name="Path 19" d="M166.779,156.258a.856.856,0,0,0-.491-.633,1.1,1.1,0,0,0-.411-.089.89.89,0,0,0-.607.232,1,1,0,0,0-.277.491Zm0,.651.259.134a1.314,1.314,0,0,1-.295.41,1.259,1.259,0,0,1-.375.232,1.358,1.358,0,0,1-.473.08,1.144,1.144,0,0,1-.92-.383,1.325,1.325,0,0,1-.054-1.686,1.153,1.153,0,0,1,.955-.455,1.211,1.211,0,0,1,.982.464,1.307,1.307,0,0,1,.259.821h-2.161a.993.993,0,0,0,.268.687.85.85,0,0,0,.643.267,1,1,0,0,0,.357-.062.947.947,0,0,0,.295-.169,1.454,1.454,0,0,0,.259-.339m-3.5-1.606h.312v.348a1.091,1.091,0,0,1,.3-.3.556.556,0,0,1,.321-.107.572.572,0,0,1,.277.08l-.161.259a.407.407,0,0,0-.161-.036.434.434,0,0,0-.3.125.783.783,0,0,0-.214.393,3.849,3.849,0,0,0-.063.83v.812h-.312Zm-3.063.5-.241.152a1.106,1.106,0,0,0-1.6-.143.918.918,0,0,0-.295.687.972.972,0,0,0,.5.856,1.128,1.128,0,0,0,1.393-.294l.241.161a1.2,1.2,0,0,1-.464.4,1.414,1.414,0,0,1-.661.143,1.3,1.3,0,0,1-.938-.366,1.16,1.16,0,0,1-.375-.874,1.268,1.268,0,0,1,.17-.651,1.2,1.2,0,0,1,.482-.464,1.379,1.379,0,0,1,.688-.17,1.618,1.618,0,0,1,.464.072,1.819,1.819,0,0,1,.375.187,1.086,1.086,0,0,1,.259.3m1.732-.267a.883.883,0,0,0-.473.134c-1.036.589-.643,2.079.384,1.65a.942.942,0,0,0,.545-.928v-.848c-.205-.009-.179-.009-.456-.009m.741-.294V157.7h-.3v-.455a1.106,1.106,0,0,1-.938.455c-.777-.045-1.205-1.276-.393-2.1a1.2,1.2,0,0,1,.875-.366h.759Z" transform="translate(-108.306 -106.565)" fill="#fff"/>
      <rect id="Rectangle_4" data-name="Rectangle 4" width="0.313" height="4.21" transform="translate(47.498 47.811)" fill="#fff"/>
      <path id="Path_20" data-name="Path 20" d="M124.347,152.38h.313v.892h.491v.268h-.491v2.132h-.313V153.54h-.42v-.268h.42Zm-.7-.035v.3a.877.877,0,0,0-.295-.071.272.272,0,0,0-.151.036.191.191,0,0,0-.072.08,1.237,1.237,0,0,0-.018.259v.321h.5v.268h-.5v2.132H122.8V153.54h-.313v-.268h.313V152.9a1.134,1.134,0,0,1,.045-.366.363.363,0,0,1,.17-.178.5.5,0,0,1,.268-.071,1.2,1.2,0,0,1,.366.063m-5.188.927h.322v.348a.963.963,0,0,1,.294-.3.584.584,0,0,1,.33-.107.543.543,0,0,1,.268.08l-.161.259a.409.409,0,0,0-.161-.036.415.415,0,0,0-.295.125.791.791,0,0,0-.223.393,4.027,4.027,0,0,0-.053.83v.812h-.322Zm-.473.5-.25.152a1.106,1.106,0,0,0-1.6-.143.943.943,0,0,0-.286.687.97.97,0,0,0,.5.856,1.011,1.011,0,0,0,.518.125,1.038,1.038,0,0,0,.866-.419l.25.161a1.2,1.2,0,0,1-.464.4,1.44,1.44,0,0,1-.661.143,1.273,1.273,0,0,1-.947-.366,1.16,1.16,0,0,1-.375-.874,1.275,1.275,0,0,1,.179-.651,1.2,1.2,0,0,1,.482-.464,1.355,1.355,0,0,1,.687-.17,1.513,1.513,0,0,1,.456.071,1.463,1.463,0,0,1,.375.187.979.979,0,0,1,.267.3m3.233-.267a.884.884,0,0,0-.473.134c-1.036.589-.643,2.079.384,1.65a.942.942,0,0,0,.545-.928v-.848c-.205-.009-.179-.009-.456-.009m.742-.294v2.462h-.3v-.455a1.106,1.106,0,0,1-.938.455c-.777-.045-1.205-1.276-.393-2.1a1.2,1.2,0,0,1,.875-.366h.759Z" transform="translate(-79.313 -104.533)" fill="#fff"/>
      <path id="Path_21" data-name="Path 21" d="M166.953,69.555h.018l1.438,6.128h1.786l1.947-9.884h-1.965l-.982,6.11c-.035.2-.062.2-.107,0L167.7,65.8h-1.5l-1.384,6.11c-.045.2-.071.2-.1,0l-.991-6.11h-1.965l1.956,9.884H165.5l1.438-6.128Z" transform="translate(-111.043 -45.168)" fill="#fff"/>
      <path id="Path_22" data-name="Path 22" d="M131.914,109.341c.688-.83,2.9-.633,3.777-.17v-1.561c-1.679-.535-4.242-.393-5.135.687a3.533,3.533,0,0,0-.973,2.649v2.667a3.512,3.512,0,0,0,.973,2.64,3.556,3.556,0,0,0,2.617.964,11.24,11.24,0,0,0,2.518-.268v-1.713c-.786.544-3.116.8-3.777-.027-.714-.892-.723-5,0-5.869" transform="translate(-88.952 -73.661)" fill="#fff"/>
    </g>
  </g>
</svg>
